<?xml version="1.0" standalone="no"?>
<!DOCTYPE svg PUBLIC "-//W3C//DTD SVG 20010904//EN"
 "http://www.w3.org/TR/2001/REC-SVG-20010904/DTD/svg10.dtd">
<svg version="1.0" xmlns="http://www.w3.org/2000/svg"
 width="2466.000000pt" height="2466.000000pt" viewBox="0 0 2466.000000 2466.000000"
 preserveAspectRatio="xMidYMid meet">
<metadata>
Created by potrace 1.14, written by Peter Selinger 2001-2017
</metadata>
<g transform="translate(0.000000,2466.000000) scale(0.100000,-0.100000)"
fill="#000000" stroke="none">
<path d="M12275 24623 c-33 -20 -78 -46 -100 -58 -22 -13 -283 -163 -580 -335
-297 -172 -556 -321 -575 -332 -19 -11 -123 -71 -230 -133 -326 -189 -1222
-706 -1265 -730 -22 -13 -209 -121 -415 -240 -206 -120 -391 -227 -410 -237
-19 -11 -168 -97 -330 -191 -162 -93 -311 -179 -330 -190 -19 -10 -60 -34 -90
-52 -46 -27 -637 -369 -735 -425 -16 -9 -176 -101 -355 -205 -179 -103 -340
-196 -358 -207 -56 -31 -673 -387 -742 -428 -36 -21 -240 -139 -455 -263 -214
-124 -633 -365 -930 -537 -297 -172 -560 -324 -585 -338 -25 -14 -229 -132
-455 -262 -680 -394 -1247 -721 -1296 -749 -25 -14 -121 -69 -212 -121 l-166
-95 0 -6165 0 -6165 122 -69 c67 -39 496 -286 952 -549 457 -264 844 -488 860
-497 17 -9 208 -120 425 -245 217 -126 478 -277 580 -335 236 -136 1394 -805
1520 -878 174 -101 392 -227 635 -367 132 -76 425 -244 650 -375 226 -130 631
-364 900 -520 270 -155 578 -333 685 -395 107 -62 326 -188 485 -280 395 -228
423 -244 475 -275 25 -15 212 -123 415 -240 204 -117 600 -346 880 -508 281
-162 616 -355 745 -429 129 -75 258 -149 285 -166 28 -17 55 -30 60 -30 6 0
134 72 285 160 238 138 782 452 1465 846 105 60 260 150 345 200 85 49 175
101 199 114 24 14 156 90 294 170 372 215 568 328 607 350 19 11 163 95 320
185 666 386 827 478 1040 601 442 255 546 314 585 336 22 12 47 25 55 31 8 5
58 33 110 63 52 30 149 86 215 125 66 38 136 79 155 90 19 11 67 38 107 61 39
22 87 49 105 60 18 10 47 26 64 36 l30 18 1170 -1169 c988 -989 1220 -1216
1320 -1293 16 -12 103 -62 154 -87 129 -64 203 -87 395 -123 61 -12 282 -12
350 -1 127 21 166 30 245 56 61 20 237 105 280 135 239 165 397 358 494 600
20 48 38 98 41 111 68 289 68 492 0 731 -28 98 -86 231 -127 293 -16 23 -28
45 -28 49 0 29 -214 251 -1039 1078 -520 521 -947 949 -949 951 -2 3 370 220
588 344 19 10 294 169 610 352 781 452 862 499 1037 598 l152 87 0 6165 0
6165 -131 75 c-72 41 -154 88 -182 104 -28 15 -134 77 -236 136 -102 59 -345
199 -540 312 -195 113 -573 331 -840 485 -267 154 -586 339 -710 410 -258 149
-279 161 -809 467 -216 125 -409 237 -429 248 -19 10 -103 59 -186 107 -154
90 -1873 1083 -1936 1118 -19 11 -240 139 -490 283 -550 318 -943 545 -990
572 -89 51 -1418 819 -1520 878 -63 37 -452 262 -865 500 -412 238 -763 440
-780 450 -30 18 -30 18 -90 -17z"/>
</g>
</svg>
